<?xml version="1.0" standalone="no"?>
<!DOCTYPE svg PUBLIC "-//W3C//DTD SVG 20010904//EN"
 "http://www.w3.org/TR/2001/REC-SVG-20010904/DTD/svg10.dtd">
<svg version="1.0" xmlns="http://www.w3.org/2000/svg"
 width="500.000000pt" height="500.000000pt" viewBox="0 0 500.000000 500.000000"
 preserveAspectRatio="xMidYMid meet">

<g transform="translate(0.000000,500.000000) scale(0.100000,-0.100000)"
fill="#000000" stroke="none">
<path d="M2360 4144 c-14 -2 -63 -9 -110 -15 -106 -13 -292 -67 -408 -117
-371 -160 -685 -472 -848 -841 -197 -449 -188 -960 26 -1396 219 -446 630
-772 1109 -881 525 -119 1062 18 1467 374 549 483 709 1285 389 1947 -233 482
-681 820 -1205 911 -83 14 -370 27 -420 18z m490 -77 c296 -71 542 -204 752
-406 332 -318 498 -705 498 -1161 0 -250 -48 -470 -148 -683 -179 -380 -526
-694 -919 -831 -198 -68 -281 -81 -533 -81 -199 0 -237 3 -328 23 -209 47
-379 118 -547 230 -116 76 -153 106 -249 200 -314 308 -476 697 -476 1142 0
271 47 475 166 715 214 434 629 756 1101 854 142 30 139 29 368 26 183 -3 224
-6 315 -28z"/>
<path d="M2452 4033 c13 -30 41 -113 67 -200 25 -82 35 -103 50 -103 26 0 34
13 76 115 20 50 48 109 61 133 l25 42 -36 0 c-24 0 -35 -5 -35 -14 0 -23 -51
-156 -60 -156 -10 0 -40 108 -40 143 0 15 -6 29 -12 31 -31 10 -100 16 -96 9z"/>
<path d="M2153 3993 c-21 -4 -23 -10 -23 -66 0 -59 -9 -135 -25 -219 -7 -37
-7 -37 21 -29 25 6 29 13 32 48 3 37 6 41 34 47 51 10 59 7 70 -25 10 -30 12
-31 56 -25 25 3 48 8 50 11 3 2 -6 19 -20 37 -14 18 -50 74 -81 124 -47 75
-79 112 -90 103 -1 -1 -12 -4 -24 -6z m52 -143 c14 -27 14 -29 -6 -35 -28 -9
-38 4 -32 42 6 37 16 35 38 -7z"/>
<path d="M2870 3964 c0 -30 -47 -198 -66 -235 -13 -27 -13 -27 33 -38 25 -7
46 -11 47 -9 1 2 12 46 25 98 13 52 31 114 42 138 13 31 15 44 6 47 -7 2 -27
8 -46 14 -44 14 -41 15 -41 -15z"/>
<path d="M3114 3893 c-11 -35 -66 -149 -95 -194 -16 -25 -29 -49 -29 -53 0 -4
34 -23 75 -43 61 -28 83 -34 113 -30 75 13 126 72 126 150 1 70 -23 102 -113
150 -64 35 -72 37 -77 20z m97 -73 c63 -35 -30 -218 -100 -195 -11 3 -21 14
-21 22 0 16 89 183 97 183 3 0 13 -5 24 -10z"/>
<path d="M1745 3833 c-38 -19 -72 -37 -74 -39 -2 -2 7 -16 20 -32 23 -28 103
-180 113 -215 5 -16 11 -14 63 14 77 43 113 78 123 123 21 93 -54 187 -147
186 -15 -1 -59 -17 -98 -37z m122 -45 c56 -59 71 -135 31 -163 -28 -19 -29
-18 -87 95 -31 58 -38 79 -29 88 21 21 53 13 85 -20z"/>
<path d="M2340 3630 c-171 -30 -311 -81 -442 -163 -433 -271 -634 -795 -492
-1284 104 -358 383 -648 734 -763 766 -250 1538 338 1497 1140 -26 512 -395
945 -897 1055 -89 19 -322 28 -400 15z m74 -325 c-26 -62 -89 -149 -141 -194
-47 -40 -47 -41 -15 -30 19 6 69 44 112 84 42 40 88 79 101 86 22 11 99 30 99
24 0 -2 -19 -15 -42 -29 -54 -32 -135 -102 -127 -110 3 -3 28 8 55 25 47 30
48 30 25 5 -42 -45 -5 -28 71 33 90 72 120 87 183 95 l50 6 -40 -13 c-60 -20
-78 -32 -152 -98 -77 -69 -135 -105 -208 -132 l-50 -18 45 6 c64 9 112 33 225
115 116 84 166 110 215 110 43 0 103 -28 150 -68 l35 -31 -49 15 c-27 8 -61
14 -75 14 -22 0 -20 -3 20 -29 90 -58 159 -156 174 -246 l6 -40 -28 52 c-35
65 -92 134 -135 164 -31 21 -30 19 8 -22 88 -93 135 -208 133 -329 l-1 -55
-13 68 c-25 121 -76 209 -159 268 -53 39 -65 36 -27 -6 38 -44 74 -112 95
-184 23 -77 20 -86 -7 -21 -31 74 -90 163 -130 192 -59 45 -62 42 -15 -10 26
-30 56 -77 67 -108 29 -75 26 -90 -4 -26 -32 68 -69 117 -110 142 -43 27 -55
26 -20 -2 32 -25 85 -105 85 -127 0 -9 -8 -1 -17 17 -16 33 -88 102 -106 102
-5 0 2 -9 17 -21 29 -23 58 -67 34 -53 -7 4 -26 17 -41 28 -25 18 -40 21 -115
17 -141 -6 -190 -5 -331 4 l-133 8 5 34 c3 18 16 47 27 64 34 46 17 45 -24 -2
-19 -23 -38 -57 -42 -74 -4 -25 -14 -36 -45 -49 -22 -10 -39 -19 -37 -21 2 -1
44 4 93 11 50 8 106 12 125 8 47 -8 141 -59 176 -95 l28 -29 -90 0 c-57 -1
-100 -6 -119 -16 -16 -8 -22 -12 -13 -10 48 13 92 18 122 12 l34 -7 -24 -42
c-13 -23 -24 -45 -24 -49 0 -13 232 -8 292 6 59 14 129 8 166 -15 14 -9 27 -9
51 -1 39 14 60 7 72 -25 18 -47 -10 -106 -56 -117 -17 -4 -23 -11 -19 -24 5
-15 4 -15 -9 1 -9 10 -18 41 -22 68 -8 55 -19 57 -29 4 -4 -19 -18 -48 -32
-65 -21 -24 -34 -30 -66 -30 -32 0 -47 7 -74 34 -19 19 -34 43 -34 54 0 50 -4
52 -137 52 l-126 0 6 -62 c5 -58 4 -61 -8 -38 l-14 25 -1 -25 c0 -41 20 -100
42 -122 17 -17 30 -20 80 -16 52 4 58 3 42 -9 -10 -7 -14 -13 -9 -13 5 0 20
10 33 23 23 20 25 21 18 2 -30 -77 -30 -78 -8 -95 l21 -17 -25 -24 c-14 -13
-31 -33 -36 -44 l-11 -20 23 20 24 20 -17 -25 c-9 -13 -17 -36 -17 -50 0 -21
3 -19 19 17 11 23 29 47 41 53 12 7 20 8 16 2 -3 -5 11 -1 31 9 21 11 46 19
56 19 17 0 17 -1 3 -16 -9 -8 -16 -32 -16 -52 0 -28 -3 -33 -10 -22 -8 13 -10
12 -10 -3 0 -19 57 -83 66 -75 2 3 -3 19 -13 35 -15 27 -15 35 -3 74 13 40 15
42 18 17 3 -28 35 -58 60 -58 9 0 5 8 -9 20 -21 17 -21 19 -6 20 10 0 36 9 58
21 38 19 42 19 65 4 24 -15 33 -8 14 11 -8 8 -6 15 5 24 23 19 19 57 -9 75
-25 17 -45 13 -86 -15 -48 -33 -152 -48 -134 -19 3 5 -2 9 -11 9 -22 0 -65 45
-65 69 0 19 2 19 25 -4 14 -15 35 -25 52 -24 l28 0 -25 11 c-24 11 -23 11 19
19 24 5 50 14 59 21 12 10 14 10 8 1 -4 -8 -2 -13 4 -13 6 0 19 18 27 39 9 22
22 42 30 46 10 3 13 1 10 -9 -4 -11 4 -13 37 -12 23 1 47 5 53 9 9 5 9 -1 3
-24 -11 -39 -8 -44 37 -67 33 -17 34 -20 18 -35 -9 -9 -23 -17 -31 -17 -34 0
-9 -145 33 -192 20 -22 5 -23 -26 -2 l-23 16 16 -30 c9 -17 26 -38 38 -47 l23
-17 -28 5 c-28 4 -29 3 -22 -29 10 -55 -10 -107 -60 -153 -24 -22 -49 -41 -54
-41 -4 0 1 18 12 40 11 23 21 62 23 88 l4 47 -14 -45 c-7 -26 -20 -57 -30 -71
-21 -33 -114 -85 -128 -71 -17 17 -26 80 -18 120 8 34 8 36 -6 17 -11 -14 -14
-37 -12 -76 5 -64 2 -65 -64 -21 -53 35 -107 110 -129 182 l-7 25 -1 -27 c-1
-15 3 -38 9 -52 14 -39 -2 -31 -54 24 -55 59 -84 118 -94 193 l-7 52 -5 -65
-5 -65 -17 49 c-22 60 -22 140 -3 221 17 69 19 175 5 223 -8 30 -7 32 7 20 14
-11 14 -9 -1 20 -20 39 -74 66 -111 56 -14 -3 -35 -18 -46 -32 -25 -32 -22
-51 22 -160 17 -42 33 -99 36 -127 l5 -50 -25 50 c-13 28 -40 75 -59 106 -71
110 -83 169 -48 227 l20 33 -20 -11 c-11 -6 -20 -12 -20 -13 0 -1 -7 -20 -14
-42 l-15 -40 -21 48 c-17 38 -21 60 -16 100 9 81 9 87 -1 172 -22 178 40 243
263 275 102 14 164 29 204 49 19 9 36 17 38 16 1 -1 -5 -19 -14 -40z m-716
-725 c6 0 12 -7 12 -15 0 -18 -5 -18 -32 -4 -38 21 -42 -7 -4 -29 59 -35 43
-82 -26 -82 -26 0 -38 4 -38 14 0 11 9 13 37 9 42 -7 39 8 -8 32 -51 27 -29
93 26 80 11 -3 26 -5 33 -5z m1406 0 c32 -12 33 -38 4 -75 l-21 -27 22 7 c19
6 22 4 19 -12 -2 -14 -14 -19 -51 -21 -26 -2 -47 0 -47 4 0 3 14 22 30 41 17
18 30 40 30 48 0 20 -20 29 -33 16 -14 -14 -27 -14 -27 -1 0 9 17 19 47 29 1
1 13 -3 27 -9z m141 -15 c61 -60 -13 -156 -77 -98 -33 29 -19 101 22 116 26 9
30 8 55 -18z m116 15 c25 -14 24 -48 -3 -78 l-23 -24 23 7 c20 6 23 4 20 -12
-2 -14 -14 -19 -51 -21 -26 -2 -47 1 -47 6 0 4 14 21 30 37 30 29 39 59 20 70
-6 4 -17 1 -25 -5 -12 -10 -15 -9 -15 3 0 14 14 22 43 26 5 0 17 -4 28 -9z
m-1773 -18 c3 -11 0 -12 -17 -3 -12 7 -26 9 -31 6 -15 -10 -12 -35 5 -35 8 0
15 -7 15 -16 0 -10 -6 -14 -15 -10 -10 4 -15 -1 -15 -15 0 -18 5 -21 30 -17
19 3 29 1 27 -6 -2 -6 -25 -12 -51 -14 l-47 -3 3 66 2 66 45 -3 c26 -2 46 -9
49 -16z m252 3 c0 -13 -4 -14 -20 -5 -19 10 -20 8 -20 -50 0 -53 -2 -60 -20
-60 -18 0 -20 7 -20 60 0 58 -1 60 -20 50 -16 -9 -20 -8 -20 5 0 12 13 15 60
15 47 0 60 -3 60 -15z m124 -1 c25 -24 24 -68 -1 -96 -10 -11 -31 -18 -55 -18
l-38 0 0 65 0 65 39 0 c23 0 46 -7 55 -16z m1526 -23 c0 -22 6 -42 13 -45 9
-5 9 -7 0 -12 -7 -3 -9 -12 -6 -20 4 -10 -2 -14 -21 -14 -18 0 -24 4 -20 15 5
11 -1 15 -25 15 -17 0 -31 4 -31 10 0 13 70 90 81 90 5 0 9 -18 9 -39z m-1362
-353 c7 -7 12 -23 12 -37 0 -37 71 -97 190 -161 106 -57 138 -85 147 -131 3
-15 15 -32 27 -37 l21 -11 -22 0 c-18 -1 -27 10 -44 48 -20 47 -27 53 -127
108 -115 63 -202 136 -202 171 0 27 -17 37 -35 22 -26 -22 -16 -41 56 -113 71
-69 73 -73 14 -34 l-30 20 30 -33 c32 -35 23 -33 -35 9 l-35 25 31 -35 c17
-18 31 -42 31 -51 0 -18 -4 -17 -57 19 -14 9 -5 -4 20 -30 53 -56 47 -62 -12
-9 -34 30 -39 33 -28 12 7 -13 36 -49 64 -79 28 -30 41 -49 30 -43 -12 6 -52
44 -89 84 -47 51 -65 65 -60 48 21 -69 49 -132 89 -203 52 -91 36 -84 -28 12
-44 66 -106 200 -106 228 0 8 9 17 20 20 13 4 23 19 31 47 25 96 34 118 53
132 25 17 29 17 44 2z m210 -273 c40 -18 78 -49 94 -80 10 -19 10 -19 -8 -4
-21 18 -78 49 -91 49 -4 0 6 -11 22 -25 l30 -24 -40 5 -40 4 36 -14 c19 -7 54
-23 77 -35 51 -26 113 -27 168 -2 23 10 65 22 94 26 l53 7 -7 -48 c-13 -87
-28 -134 -43 -134 -27 0 -81 28 -119 63 -56 49 -81 52 -134 16 -25 -17 -71
-44 -103 -60 l-58 -30 -21 47 c-17 40 -20 61 -15 133 3 47 8 94 12 104 9 21
44 22 93 2z"/>
<path d="M3194 2557 c-10 -28 0 -82 16 -82 21 0 26 68 6 84 -13 11 -17 11 -22
-2z"/>
<path d="M1909 2555 c-4 -50 0 -85 11 -85 16 0 31 38 24 64 -7 28 -33 43 -35
21z"/>
<path d="M3440 2515 c-10 -12 -10 -15 4 -15 9 0 16 7 16 15 0 8 -2 15 -4 15
-2 0 -9 -7 -16 -15z"/>
<path d="M2125 1970 c10 -11 20 -20 23 -20 3 0 -3 9 -13 20 -10 11 -20 20 -23
20 -3 0 3 -9 13 -20z"/>
<path d="M1117 2933 c-39 -136 -57 -237 -64 -368 -5 -106 9 -300 22 -314 14
-13 15 17 4 123 -18 178 12 440 66 579 17 42 19 67 7 67 -5 0 -21 -39 -35 -87z"/>
<path d="M3840 3005 c0 -8 7 -32 15 -52 54 -138 83 -392 66 -575 -10 -110 -10
-140 4 -127 2 3 10 50 16 105 20 175 -1 385 -58 577 -24 78 -43 111 -43 72z"/>
<path d="M1212 2908 c-48 -157 -57 -217 -57 -403 0 -181 6 -235 26 -235 7 0 9
9 5 23 -4 12 -10 82 -13 156 -8 169 16 343 62 464 17 44 19 57 5 57 -5 0 -18
-28 -28 -62z"/>
<path d="M3750 2960 c0 -5 7 -27 15 -47 46 -119 70 -302 62 -471 -3 -70 -9
-137 -13 -149 -4 -14 -2 -23 5 -23 20 0 26 54 26 230 0 129 -5 197 -18 257
-24 113 -56 213 -67 213 -6 0 -10 -4 -10 -10z"/>
<path d="M1300 1988 c-24 -11 -24 -12 -4 -15 12 -2 32 -15 45 -29 l24 -25 -24
-18 c-12 -10 -62 -37 -109 -61 -48 -25 -88 -45 -90 -46 -2 -1 6 -21 18 -43
l21 -42 42 29 c23 16 73 46 111 67 77 43 89 39 84 -27 -4 -45 1 -46 33 -12
l24 25 -33 63 c-50 96 -85 146 -102 145 -8 0 -26 -5 -40 -11z"/>
<path d="M3623 1935 c-19 -13 -108 -155 -101 -160 2 -1 28 -13 58 -28 30 -14
86 -47 124 -72 38 -25 70 -45 71 -45 6 0 45 71 45 81 0 5 -8 9 -17 9 -27 0
-85 39 -77 51 4 7 32 10 71 7 l65 -3 25 42 24 42 -35 -6 c-51 -8 -104 4 -111
26 -3 10 -17 31 -30 45 -28 30 -78 35 -112 11z m80 -99 c3 -8 0 -22 -7 -31
-14 -20 -38 -15 -76 15 l-25 20 23 20 c22 18 26 18 52 5 15 -8 30 -21 33 -29z"/>
<path d="M1430 1661 c-41 -43 -88 -87 -105 -99 l-30 -21 34 -35 34 -35 42 47
43 47 26 -24 c14 -14 26 -30 26 -37 0 -6 -18 -28 -40 -48 l-40 -36 21 -30 c12
-16 27 -30 33 -32 6 -2 57 43 113 100 l103 102 -30 33 -30 32 -36 -42 c-19
-24 -41 -43 -48 -43 -15 0 -56 42 -56 57 0 14 67 73 82 73 7 0 -3 16 -22 35
-19 19 -36 34 -39 34 -4 -1 -40 -36 -81 -78z"/>
<path d="M3407 1650 c-68 -67 -71 -72 -52 -83 11 -7 60 -52 109 -100 l90 -89
68 70 c37 38 68 74 68 80 0 6 -11 24 -25 39 l-24 28 -1 -36 c0 -26 -8 -43 -30
-64 l-30 -29 -25 24 c-24 22 -33 50 -17 50 4 0 14 5 22 10 12 7 11 13 -10 34
-28 31 -40 33 -40 7 0 -34 -21 -35 -53 -3 l-30 30 28 26 c17 16 40 26 58 26
25 0 28 2 17 16 -36 42 -48 39 -123 -36z"/>
<path d="M1742 1483 c-5 -16 -40 -73 -76 -127 -36 -55 -65 -100 -63 -101 1 -1
22 -15 47 -32 25 -17 64 -40 86 -51 l41 -21 22 23 c27 29 27 38 -3 30 -26 -6
-84 19 -92 41 -7 16 23 65 40 65 6 0 17 -10 25 -21 13 -22 13 -22 32 7 24 37
24 44 0 44 -11 0 -23 4 -26 10 -9 14 23 70 41 70 20 0 64 -45 64 -65 0 -8 4
-15 10 -15 13 0 32 39 26 55 -5 13 -55 49 -127 93 l-37 22 -10 -27z"/>
<path d="M3166 1455 c-86 -56 -82 -51 -63 -72 23 -27 118 -174 131 -205 l12
-27 76 50 c85 54 108 80 108 120 0 33 -32 75 -64 83 -17 4 -26 15 -31 36 -8
35 -39 60 -75 60 -14 0 -56 -21 -94 -45z m79 -31 c9 -9 15 -26 13 -38 -4 -31
-39 -27 -58 7 -13 24 -13 29 0 37 21 13 26 12 45 -6z m87 -91 c27 -32 28 -52
6 -73 -27 -25 -37 -22 -66 20 l-23 34 23 18 c29 22 41 22 60 1z"/>
<path d="M2853 1313 c-71 -24 -72 -25 -58 -47 20 -30 75 -203 75 -234 0 -26
12 -26 74 -2 l25 9 -20 46 c-11 26 -18 54 -14 63 5 14 16 7 55 -35 l48 -52 46
15 46 16 -51 46 c-48 46 -49 48 -39 82 12 40 6 66 -23 98 -27 29 -71 28 -164
-5z m95 -35 c7 -7 12 -27 12 -44 0 -24 -5 -34 -21 -39 -11 -4 -23 -5 -26 -2
-10 10 -31 82 -26 89 7 12 48 9 61 -4z"/>
<path d="M2160 1309 c-1 -2 -3 -26 -6 -54 -4 -41 -29 -169 -45 -224 -3 -11 20
-19 90 -34 86 -17 98 -17 127 -4 42 20 56 61 39 111 -11 31 -11 42 2 67 12 24
13 36 3 58 -14 35 -38 47 -118 61 -35 6 -70 14 -78 17 -8 3 -14 4 -14 2z m126
-74 c4 -8 3 -26 0 -40 -5 -18 -13 -25 -31 -25 -22 0 -25 5 -25 33 0 19 3 37 7
40 12 13 44 7 49 -8z m-15 -115 c42 -23 13 -94 -36 -88 -27 3 -30 7 -29 36 3
62 20 75 65 52z"/>
<path d="M2558 1263 c-12 -3 -18 -14 -18 -31 0 -35 -45 -204 -65 -242 l-16
-30 35 0 c33 0 35 2 38 37 3 34 6 38 41 46 44 11 67 -3 67 -39 0 -31 12 -36
65 -29 l45 7 -24 42 c-13 22 -39 78 -57 124 -45 111 -61 128 -111 115z m37
-135 c7 -18 11 -36 9 -40 -7 -10 -42 -10 -47 0 -5 9 11 72 19 72 3 0 11 -15
19 -32z"/>
</g>
</svg>
